OpenSansIPA-Italic.ufo
<glyph name="sheva-hb" format="2">
	<advance width="0"/>
	<unicode hex="05B0"/>
	<anchor x="-131.1" y="-64.9" name="_bottom"/>
	<note>
		afii57799
	</note>
	<outline>
		<contour>
			<point x="-169.03333" y="-240.26667" type="curve" smooth="yes"/>
			<point x="-114.1" y="-240.26667"/>
			<point x="-78.8" y="-196.06667"/>
			<point x="-78.8" y="-136" type="curve" smooth="yes"/>
			<point x="-78.8" y="-105.1"/>
			<point x="-96.26667" y="-84.9"/>
			<point x="-135.86667" y="-84.9" type="curve" smooth="yes"/>
			<point x="-192.13333" y="-84.9"/>
			<point x="-224.8" y="-134.03333"/>
			<point x="-224.8" y="-191.93333" type="curve" smooth="yes"/>
			<point x="-224.8" y="-221.06667"/>
			<point x="-207.86667" y="-240.26667"/>
		</contour>
		<contour>
			<point x="-223.86667" y="-498.9" type="curve" smooth="yes"/>
			<point x="-168.16667" y="-498.9"/>
			<point x="-132.86667" y="-453.16667"/>
			<point x="-132.86667" y="-392.86667" type="curve" smooth="yes"/>
			<point x="-132.86667" y="-362.96667"/>
			<point x="-150.33333" y="-342.76667"/>
			<point x="-190.7" y="-342.76667" type="curve" smooth="yes"/>
			<point x="-246.5" y="-342.76667"/>
			<point x="-279.63333" y="-392.66667"/>
			<point x="-279.63333" y="-450.33333" type="curve" smooth="yes"/>
			<point x="-279.63333" y="-479.7"/>
			<point x="-262.7" y="-498.9"/>
		</contour>
	</outline>
</glyph>
<glyph name="hatafsegol-hb" format="2">
	<advance width="0"/>
	<unicode hex="05B1"/>
	<anchor x="497.33333" y="-68.4" name="_bottom"/>
	<note>
		afii57801
	</note>
	<outline>
		<contour>
			<point x="158.53333" y="-243.76667" type="curve" smooth="yes"/>
			<point x="213.23333" y="-243.76667"/>
			<point x="248.23333" y="-199.8"/>
			<point x="248.23333" y="-138.73333" type="curve" smooth="yes"/>
			<point x="248.23333" y="-108.6"/>
			<point x="230.3" y="-88.4"/>
			<point x="191.7" y="-88.4" type="curve" smooth="yes"/>
			<point x="135.66667" y="-88.4"/>
			<point x="103" y="-137.76667"/>
			<point x="103" y="-195.43333" type="curve" smooth="yes"/>
			<point x="103" y="-224.56667"/>
			<point x="119.93333" y="-243.76667"/>
		</contour>
		<contour>
			<point x="447.63333" y="-243.76667" type="curve" smooth="yes"/>
			<point x="502.8" y="-243.76667"/>
			<point x="537.8" y="-199.8"/>
			<point x="537.8" y="-138.96667" type="curve" smooth="yes"/>
			<point x="537.8" y="-108.83333"/>
			<point x="519.86667" y="-88.4"/>
			<point x="481.03333" y="-88.4" type="curve" smooth="yes"/>
			<point x="424.53333" y="-88.4"/>
			<point x="392.1" y="-137.53333"/>
			<point x="392.1" y="-195.66667" type="curve" smooth="yes"/>
			<point x="392.1" y="-224.8"/>
			<point x="408.56667" y="-243.76667"/>
		</contour>
		<contour>
			<point x="704.66667" y="-243.76667" type="curve" smooth="yes"/>
			<point x="759.6" y="-243.76667"/>
			<point x="794.9" y="-199.56667"/>
			<point x="794.9" y="-139.5" type="curve" smooth="yes"/>
			<point x="794.9" y="-108.6"/>
			<point x="777.43333" y="-88.4"/>
			<point x="737.83333" y="-88.4" type="curve" smooth="yes"/>
			<point x="681.8" y="-88.4"/>
			<point x="649.66667" y="-138.53333"/>
			<point x="649.66667" y="-196.2" type="curve" smooth="yes"/>
			<point x="649.66667" y="-224.56667"/>
			<point x="666.6" y="-243.76667"/>
		</contour>
		<contour>
			<point x="248.03333" y="-502.4" type="curve" smooth="yes"/>
			<point x="303.73333" y="-502.4"/>
			<point x="339.03333" y="-456.66667"/>
			<point x="339.03333" y="-396.36667" type="curve" smooth="yes"/>
			<point x="339.03333" y="-366.46667"/>
			<point x="321.33333" y="-346.26667"/>
			<point x="281.2" y="-346.26667" type="curve" smooth="yes"/>
			<point x="225.16667" y="-346.26667"/>
			<point x="192.5" y="-396.16667"/>
			<point x="192.5" y="-453.83333" type="curve" smooth="yes"/>
			<point x="192.5" y="-483.2"/>
			<point x="209.2" y="-502.4"/>
		</contour>
		<contour>
			<point x="649.83333" y="-502.4" type="curve" smooth="yes"/>
			<point x="705.53333" y="-502.4"/>
			<point x="740.83333" y="-456.66667"/>
			<point x="740.83333" y="-396.36667" type="curve" smooth="yes"/>
			<point x="740.83333" y="-366.46667"/>
			<point x="723.36667" y="-346.26667"/>
			<point x="683" y="-346.26667" type="curve" smooth="yes"/>
			<point x="626.8" y="-346.26667"/>
			<point x="594.83333" y="-396.86667"/>
			<point x="594.83333" y="-453.83333" type="curve" smooth="yes"/>
			<point x="594.83333" y="-483.2"/>
			<point x="611.76667" y="-502.4"/>
		</contour>
	</outline>
</glyph>
<glyph name="hatafpatah-hb" format="2">
	<advance width="0"/>
	<unicode hex="05B2"/>
	<anchor x="511.73333" y="-68.4" name="_bottom"/>
	<note>
		afii57800
	</note>
	<outline>
		<contour>
			<point x="163.8" y="-206.1" type="line"/>
			<point x="522.36667" y="-206.1" type="line"/>
			<point x="539.46667" y="-124.36667" type="line"/>
			<point x="180.9" y="-124.36667" type="line"/>
		</contour>
		<contour>
			<point x="617.83333" y="-502.4" type="curve" smooth="yes"/>
			<point x="672.76667" y="-502.4"/>
			<point x="708.83333" y="-456.66667"/>
			<point x="708.83333" y="-396.36667" type="curve" smooth="yes"/>
			<point x="708.83333" y="-366.46667"/>
			<point x="691.13333" y="-346.26667"/>
			<point x="651" y="-346.26667" type="curve" smooth="yes"/>
			<point x="594.96667" y="-346.26667"/>
			<point x="562.3" y="-396.16667"/>
			<point x="562.3" y="-453.83333" type="curve" smooth="yes"/>
			<point x="562.3" y="-483.2"/>
			<point x="579" y="-502.4"/>
		</contour>
		<contour>
			<point x="672.66667" y="-243.76667" type="curve" smooth="yes"/>
			<point x="727.6" y="-243.76667"/>
			<point x="762.9" y="-199.56667"/>
			<point x="762.9" y="-139.5" type="curve" smooth="yes"/>
			<point x="762.9" y="-108.6"/>
			<point x="745.2" y="-88.4"/>
			<point x="705.83333" y="-88.4" type="curve" smooth="yes"/>
			<point x="649.56667" y="-88.4"/>
			<point x="617.13333" y="-137.53333"/>
			<point x="617.13333" y="-195.43333" type="curve" smooth="yes"/>
			<point x="617.13333" y="-224.56667"/>
			<point x="633.83333" y="-243.76667"/>
		</contour>
	</outline>
</glyph>
<glyph name="hatafqamats-hb" format="2">
	<advance width="0"/>
	<unicode hex="05B3"/>
	<anchor x="-106.96667" y="-68.4" name="_bottom"/>
	<note>
		afii57802
	</note>
	<outline>
		<contour>
			<point x="-359.63333" y="-408.1" type="line"/>
			<point x="-278.53333" y="-408.1" type="line"/>
			<point x="-235.53333" y="-206.1" type="line"/>
			<point x="-96.8" y="-206.1" type="line"/>
			<point x="-79.7" y="-124.36667" type="line"/>
			<point x="-438.26667" y="-124.36667" type="line"/>
			<point x="-455.36667" y="-206.1" type="line"/>
			<point x="-316.63333" y="-206.1" type="line"/>
		</contour>
		<contour>
			<point x="-0.4" y="-502.4" type="curve" smooth="yes"/>
			<point x="54.53333" y="-502.4"/>
			<point x="90.6" y="-456.66667"/>
			<point x="90.6" y="-396.36667" type="curve" smooth="yes"/>
			<point x="90.6" y="-366.46667"/>
			<point x="73.13333" y="-346.26667"/>
			<point x="32.76667" y="-346.26667" type="curve" smooth="yes"/>
			<point x="-24.2" y="-346.26667"/>
			<point x="-56.16667" y="-396.86667"/>
			<point x="-56.16667" y="-453.83333" type="curve" smooth="yes"/>
			<point x="-56.16667" y="-483.2"/>
			<point x="-39.23333" y="-502.4"/>
		</contour>
		<contour>
			<point x="54.43333" y="-243.76667" type="curve" smooth="yes"/>
			<point x="109.36667" y="-243.76667"/>
			<point x="144.66667" y="-199.56667"/>
			<point x="144.66667" y="-139.5" type="curve" smooth="yes"/>
			<point x="144.66667" y="-108.6"/>
			<point x="127.2" y="-88.4"/>
			<point x="87.6" y="-88.4" type="curve" smooth="yes"/>
			<point x="31.56667" y="-88.4"/>
			<point x="-1.33333" y="-137.76667"/>
			<point x="-1.33333" y="-195.43333" type="curve" smooth="yes"/>
			<point x="-1.33333" y="-224.56667"/>
			<point x="15.6" y="-243.76667"/>
		</contour>
	</outline>
</glyph>
<glyph name="hiriq-hb" format="2">
	<advance width="0"/>
	<unicode hex="05B4"/>
	<anchor x="-131.56667" y="-67.23333" name="_bottom"/>
	<note>
		afii57793
	</note>
	<outline>
		<contour>
			<point x="-169.73333" y="-242.6" type="curve" smooth="yes"/>
			<point x="-114.56667" y="-242.6"/>
			<point x="-79.03333" y="-198.4"/>
			<point x="-79.03333" y="-138.56667" type="curve" smooth="yes"/>
			<point x="-79.03333" y="-107.66667"/>
			<point x="-96.96667" y="-87.23333"/>
			<point x="-136.56667" y="-87.23333" type="curve" smooth="yes"/>
			<point x="-192.83333" y="-87.23333"/>
			<point x="-225.5" y="-136.13333"/>
			<point x="-225.5" y="-194.26667" type="curve" smooth="yes"/>
			<point x="-225.5" y="-223.63333"/>
			<point x="-208.8" y="-242.6"/>
		</contour>
	</outline>
</glyph>
<glyph name="tsere-hb" format="2">
	<advance width="0"/>
	<unicode hex="05B5"/>
	<anchor x="431.33333" y="-62.8" name="_bottom"/>
	<note>
		afii57794
	</note>
	<outline>
		<contour>
			<point x="538.1" y="-238.16667" type="curve" smooth="yes"/>
			<point x="593.5" y="-238.16667"/>
			<point x="628.26667" y="-193.96667"/>
			<point x="628.26667" y="-133.36667" type="curve" smooth="yes"/>
			<point x="628.26667" y="-103.23333"/>
			<point x="610.33333" y="-82.8"/>
			<point x="571.26667" y="-82.8" type="curve" smooth="yes"/>
			<point x="514.06667" y="-82.8"/>
			<point x="482.1" y="-132.63333"/>
			<point x="482.1" y="-189.6" type="curve" smooth="yes"/>
			<point x="482.1" y="-218.96667"/>
			<point x="499.03333" y="-238.16667"/>
		</contour>
		<contour>
			<point x="249" y="-238.16667" type="curve" smooth="yes"/>
			<point x="303.93333" y="-238.16667"/>
			<point x="338.23333" y="-193.96667"/>
			<point x="338.23333" y="-133.13333" type="curve" smooth="yes"/>
			<point x="338.23333" y="-103"/>
			<point x="320.53333" y="-82.8"/>
			<point x="281.93333" y="-82.8" type="curve" smooth="yes"/>
			<point x="225.9" y="-82.8"/>
			<point x="193.23333" y="-131.93333"/>
			<point x="193.23333" y="-189.6" type="curve" smooth="yes"/>
			<point x="193.23333" y="-218.96667"/>
			<point x="210.16667" y="-238.16667"/>
		</contour>
	</outline>
</glyph>
<glyph name="segol-hb" format="2">
	<advance width="0"/>
	<unicode hex="05B6"/>
	<anchor x="-104.5" y="-68.4" name="_bottom"/>
	<note>
		afii57795
	</note>
	<outline>
		<contour>
			<point x="-314.36667" y="-243.76667" type="curve" smooth="yes"/>
			<point x="-259.43333" y="-243.76667"/>
			<point x="-224.9" y="-199.56667"/>
			<point x="-224.9" y="-138.73333" type="curve" smooth="yes"/>
			<point x="-224.9" y="-108.6"/>
			<point x="-242.6" y="-88.4"/>
			<point x="-281.2" y="-88.4" type="curve" smooth="yes"/>
			<point x="-337.23333" y="-88.4"/>
			<point x="-369.9" y="-137.53333"/>
			<point x="-369.9" y="-195.43333" type="curve" smooth="yes"/>
			<point x="-369.9" y="-224.56667"/>
			<point x="-353.2" y="-243.76667"/>
		</contour>
		<contour>
			<point x="-25.26667" y="-243.76667" type="curve" smooth="yes"/>
			<point x="30.9" y="-243.76667"/>
			<point x="65.9" y="-199.8"/>
			<point x="65.9" y="-138.96667" type="curve" smooth="yes"/>
			<point x="65.9" y="-108.83333"/>
			<point x="47.96667" y="-88.4"/>
			<point x="8.9" y="-88.4" type="curve" smooth="yes"/>
			<point x="-48.36667" y="-88.4"/>
			<point x="-81.03333" y="-137.3"/>
			<point x="-81.03333" y="-195.43333" type="curve" smooth="yes"/>
			<point x="-81.03333" y="-224.8"/>
			<point x="-64.33333" y="-243.76667"/>
		</contour>
		<contour>
			<point x="-224.86667" y="-502.4" type="curve" smooth="yes"/>
			<point x="-169.16667" y="-502.4"/>
			<point x="-133.86667" y="-456.66667"/>
			<point x="-133.86667" y="-396.36667" type="curve" smooth="yes"/>
			<point x="-133.86667" y="-366.46667"/>
			<point x="-151.33333" y="-346.26667"/>
			<point x="-191.7" y="-346.26667" type="curve" smooth="yes"/>
			<point x="-248.66667" y="-346.26667"/>
			<point x="-280.63333" y="-396.86667"/>
			<point x="-280.63333" y="-453.83333" type="curve" smooth="yes"/>
			<point x="-280.63333" y="-483.2"/>
			<point x="-263.7" y="-502.4"/>
		</contour>
	</outline>
</glyph>
<glyph name="patah-hb" format="2">
	<advance width="0"/>
	<unicode hex="05B7"/>
	<anchor x="-136.4" y="-92.63333" name="_bottom"/>
	<note>
		afii57798
	</note>
	<outline>
		<contour>
			<point x="-340.7" y="-194.9" type="line"/>
			<point x="24.7" y="-194.9" type="line"/>
			<point x="42.56667" y="-112.63333" type="line"/>
			<point x="-322.83333" y="-112.63333" type="line"/>
		</contour>
	</outline>
</glyph>
<glyph name="qamats-hb" format="2">
	<advance width="0"/>
	<unicode hex="05B8"/>
	<anchor x="-116.33333" y="-97.3" name="_bottom"/>
	<note>
		afii57797
	</note>
	<outline>
		<contour>
			<point x="-242.56667" y="-401.03333" type="line"/>
			<point x="-162.23333" y="-401.03333" type="line"/>
			<point x="-119.23333" y="-199.8" type="line"/>
			<point x="22.9" y="-199.8" type="line"/>
			<point x="40.23333" y="-117.3" type="line"/>
			<point x="-323.36667" y="-117.3" type="line"/>
			<point x="-340.7" y="-199.8" type="line"/>
			<point x="-199.56667" y="-199.8" type="line"/>
		</contour>
	</outline>
</glyph>
<glyph name="holam-hb" format="2">
	<advance width="0"/>
	<unicode hex="05B9"/>
	<anchor x="239.86667" y="1236.66667" name="_topleft"/>
	<note>
		afii57806
	</note>
	<outline>
		<contour>
			<point x="149.86667" y="1256.66667" type="curve" smooth="yes"/>
			<point x="205.03333" y="1256.66667"/>
			<point x="240.56667" y="1300.86667"/>
			<point x="240.56667" y="1360.7" type="curve" smooth="yes"/>
			<point x="240.56667" y="1391.6"/>
			<point x="222.63333" y="1412.03333"/>
			<point x="183.03333" y="1412.03333" type="curve" smooth="yes"/>
			<point x="126.76667" y="1412.03333"/>
			<point x="94.1" y="1363.13333"/>
			<point x="94.1" y="1305" type="curve" smooth="yes"/>
			<point x="94.1" y="1275.63333"/>
			<point x="110.8" y="1256.66667"/>
		</contour>
	</outline>
</glyph>
<glyph name="holamhaser-hb" format="2">
	<advance width="0"/>
	<unicode hex="05BA"/>
	<anchor x="239.1" y="1236.66667" name="_topleft"/>
	<note>
		uni05BA
	</note>
	<outline>
		<contour>
			<point x="149.1" y="1256.66667" type="curve" smooth="yes"/>
			<point x="204.26667" y="1256.66667"/>
			<point x="239.8" y="1300.86667"/>
			<point x="239.8" y="1360.7" type="curve" smooth="yes"/>
			<point x="239.8" y="1391.6"/>
			<point x="221.86667" y="1412.03333"/>
			<point x="182.26667" y="1412.03333" type="curve" smooth="yes"/>
			<point x="126" y="1412.03333"/>
			<point x="94.1" y="1362.36667"/>
			<point x="94.1" y="1304.23333" type="curve" smooth="yes"/>
			<point x="94.1" y="1275.63333"/>
			<point x="110.8" y="1256.66667"/>
		</contour>
	</outline>
</glyph>
<glyph name="qubuts-hb" format="2">
	<advance width="0"/>
	<unicode hex="05BB"/>
	<anchor x="-131.73333" y="-70.96667" name="_bottom"/>
	<note>
		afii57796
	</note>
	<outline>
		<contour>
			<point x="-323" y="-246.33333" type="curve" smooth="yes"/>
			<point x="-268.06667" y="-246.33333"/>
			<point x="-233.76667" y="-202.36667"/>
			<point x="-233.76667" y="-141.3" type="curve" smooth="yes"/>
			<point x="-233.76667" y="-111.16667"/>
			<point x="-251.23333" y="-90.96667"/>
			<point x="-289.83333" y="-90.96667" type="curve" smooth="yes"/>
			<point x="-345.86667" y="-90.96667"/>
			<point x="-378.53333" y="-140.1"/>
			<point x="-378.53333" y="-197.76667" type="curve" smooth="yes"/>
			<point x="-378.53333" y="-227.13333"/>
			<point x="-361.83333" y="-246.33333"/>
		</contour>
		<contour>
			<point x="-201.76667" y="-388.6" type="curve" smooth="yes"/>
			<point x="-146.06667" y="-388.6"/>
			<point x="-111" y="-342.86667"/>
			<point x="-111" y="-282.8" type="curve" smooth="yes"/>
			<point x="-111" y="-252.66667"/>
			<point x="-128.46667" y="-232.46667"/>
			<point x="-168.83333" y="-232.46667" type="curve" smooth="yes"/>
			<point x="-225.1" y="-232.46667"/>
			<point x="-257.76667" y="-282.36667"/>
			<point x="-257.76667" y="-340.26667" type="curve" smooth="yes"/>
			<point x="-257.76667" y="-369.4"/>
			<point x="-240.6" y="-388.6"/>
		</contour>
		<contour>
			<point x="-78" y="-530.63333" type="curve" smooth="yes"/>
			<point x="-22.06667" y="-530.63333"/>
			<point x="12.93333" y="-484.13333"/>
			<point x="12.93333" y="-424.3" type="curve" smooth="yes"/>
			<point x="12.93333" y="-394.93333"/>
			<point x="-5" y="-374.5"/>
			<point x="-44.6" y="-374.5" type="curve" smooth="yes"/>
			<point x="-101.1" y="-374.5"/>
			<point x="-132.76667" y="-422.86667"/>
			<point x="-132.76667" y="-481.76667" type="curve" smooth="yes"/>
			<point x="-132.76667" y="-510.9"/>
			<point x="-116.3" y="-530.63333"/>
		</contour>
	</outline>
</glyph>
<glyph name="dagesh-hb" format="2">
	<advance width="0"/>
	<unicode hex="05BC"/>
	<anchor x="7.5" y="585.7" name="_center"/>
	<note>
		afii57807
	</note>
	<outline>
		<contour>
			<point x="-9.96667" y="507.9" type="curve" smooth="yes"/>
			<point x="45.2" y="507.9"/>
			<point x="80.73333" y="552.1"/>
			<point x="80.73333" y="611.93333" type="curve" smooth="yes"/>
			<point x="80.73333" y="642.83333"/>
			<point x="62.8" y="663.26667"/>
			<point x="23.2" y="663.26667" type="curve" smooth="yes"/>
			<point x="-33.06667" y="663.26667"/>
			<point x="-65.73333" y="614.36667"/>
			<point x="-65.73333" y="556.23333" type="curve" smooth="yes"/>
			<point x="-65.73333" y="526.86667"/>
			<point x="-49.03333" y="507.9"/>
		</contour>
	</outline>
</glyph>
<glyph name="siluqleft-hb" format="2">
	<advance width="0"/>
	<unicode hex="05BD"/>
	<anchor x="-143.1" y="-121.66667" name="_bottom"/>
	<note>
		afii57839
	</note>
	<outline>
		<contour>
			<point x="-260.83333" y="-458.4" type="line"/>
			<point x="-168.56667" y="-458.4" type="line"/>
			<point x="-100.7" y="-141.66667" type="line"/>
			<point x="-192.96667" y="-141.66667" type="line"/>
		</contour>
	</outline>
</glyph>
<glyph name="maqaf-hb" format="2">
	<advance width="995.23333"/>
	<unicode hex="05BE"/>
	<note>
		afii57645
	</note>
	<outline>
		<contour>
			<point x="252.26667" y="1149.13333" type="line"/>
			<point x="736" y="1149.13333" type="line"/>
			<point x="763.66667" y="1291.16667" type="line"/>
			<point x="281.46667" y="1291.16667" type="line"/>
		</contour>
	</outline>
</glyph>
<glyph name="shindot-hb" format="2">
	<advance width="0"/>
	<unicode hex="05C1"/>
	<anchor x="167.33333" y="1097.73333" name="_topright"/>
	<note>
		afii57804
	</note>
	<outline>
		<contour>
			<point x="149.86667" y="1256.66667" type="curve" smooth="yes"/>
			<point x="205.03333" y="1256.66667"/>
			<point x="240.56667" y="1300.86667"/>
			<point x="240.56667" y="1360.7" type="curve" smooth="yes"/>
			<point x="240.56667" y="1391.6"/>
			<point x="222.63333" y="1412.03333"/>
			<point x="183.03333" y="1412.03333" type="curve" smooth="yes"/>
			<point x="126.76667" y="1412.03333"/>
			<point x="94.1" y="1363.13333"/>
			<point x="94.1" y="1305" type="curve" smooth="yes"/>
			<point x="94.1" y="1275.63333"/>
			<point x="110.8" y="1256.66667"/>
		</contour>
	</outline>
</glyph>
<glyph name="qamatsqatan-hb" format="2">
	<advance width="0"/>
	<unicode hex="05C7"/>
	<anchor x="-112.7" y="-49.36667" name="_bottom"/>
	<note>
		uni05C7
	</note>
	<outline>
		<contour>
			<point x="-217.76667" y="-292.2" type="line"/>
			<point x="-141.63333" y="-292.2" type="line"/>
			<point x="-111.03333" y="-147.9" type="line"/>
			<point x="10.1" y="-147.9" type="line"/>
			<point x="26.5" y="-69.36667" type="line"/>
			<point x="-289.96667" y="-69.36667" type="line"/>
			<point x="-306.36667" y="-147.9" type="line"/>
			<point x="-187.16667" y="-147.9" type="line"/>
		</contour>
	</outline>
</glyph>
<glyph name="alef-hb" format="2">
	<advance width="1162.56667"/>
	<unicode hex="05D0"/>
	<anchor x="464.73333" y="0" name="bottom"/>
	<anchor x="-96.93333" y="0" name="bottomleft"/>
	<anchor x="398.53333" y="322.76667" name="center"/>
	<anchor x="698.6" y="1097.73333" name="top"/>
	<anchor x="136.93333" y="1097.73333" name="topleft"/>
	<note>
		afii57664
	</note>
	<outline>
		<contour>
			<point x="-37.33333" y="0" type="line"/>
			<point x="128.1" y="0" type="line"/>
			<point x="224.5" y="454.06667" type="line" smooth="yes"/>
			<point x="254.5" y="593.86667"/>
			<point x="300.83333" y="676.06667"/>
			<point x="385.2" y="722.9" type="curve" smooth="yes"/>
			<point x="411.9" y="738.73333"/>
			<point x="437.06667" y="747.2"/>
			<point x="461.46667" y="748.83333" type="curve"/>
			<point x="754.16667" y="0" type="line"/>
			<point x="939.53333" y="0" type="line"/>
			<point x="771" y="421.63333" type="line"/>
			<point x="867.66667" y="448.03333"/>
			<point x="948.1" y="502.93333"/>
			<point x="998.76667" y="578.3" type="curve" smooth="yes"/>
			<point x="1047.4" y="652.63333"/>
			<point x="1073.9" y="723.13333"/>
			<point x="1094.36667" y="819.4" type="curve" smooth="yes"/>
			<point x="1194.36667" y="1291.16667" type="line"/>
			<point x="1028.7" y="1291.16667" type="line"/>
			<point x="928.46667" y="819.46667" type="line" smooth="yes"/>
			<point x="899.7" y="684.06667"/>
			<point x="858.43333" y="617.83333"/>
			<point x="773.23333" y="572.76667" type="curve" smooth="yes"/>
			<point x="757.26667" y="561.9"/>
			<point x="739.53333" y="553.26667"/>
			<point x="720.03333" y="547.4" type="curve"/>
			<point x="428.1" y="1291.16667" type="line"/>
			<point x="243.73333" y="1291.16667" type="line"/>
			<point x="410.73333" y="875.13333" type="line"/>
			<point x="309.93333" y="852.23333"/>
			<point x="223.26667" y="799.3"/>
			<point x="167.36667" y="721.7" type="curve" smooth="yes"/>
			<point x="114.23333" y="648.4"/>
			<point x="81.2" y="556.36667"/>
			<point x="58.83333" y="454.13333" type="curve" smooth="yes"/>
		</contour>
	</outline>
</glyph>
<glyph name="bet-hb" format="2">
	<advance width="1087.13333"/>
	<unicode hex="05D1"/>
	<anchor x="426.63333" y="0" name="bottom"/>
	<anchor x="-96.93333" y="0" name="bottomleft"/>
	<anchor x="400.1" y="667.1" name="center"/>
	<anchor x="660.5" y="1097.73333" name="top"/>
	<anchor x="136.93333" y="1097.73333" name="topleft"/>
	<note>
		afii57665
	</note>
	<outline>
		<contour>
			<point x="-39.6" y="0" type="line"/>
			<point x="906.1" y="0" type="line"/>
			<point x="934.83333" y="137.23333" type="line"/>
			<point x="786.16667" y="137.23333" type="line"/>
			<point x="953.3" y="921.03333" type="line" smooth="yes"/>
			<point x="963.16667" y="966.43333"/>
			<point x="968.1" y="1006.5"/>
			<point x="968.1" y="1040.76667" type="curve" smooth="yes"/>
			<point x="968.1" y="1068.5"/>
			<point x="964.8" y="1094.86667"/>
			<point x="959.2" y="1118.1" type="curve" smooth="yes"/>
			<point x="946" y="1165.33333"/>
			<point x="922.23333" y="1206.13333"/>
			<point x="881.83333" y="1236.1" type="curve" smooth="yes"/>
			<point x="791.83333" y="1299.1"/>
			<point x="683.53333" y="1311.16667"/>
			<point x="519.36667" y="1311.16667" type="curve" smooth="yes"/>
			<point x="430.33333" y="1311.16667"/>
			<point x="335.5" y="1306.76667"/>
			<point x="235.16667" y="1297.43333" type="curve"/>
			<point x="205.9" y="1158.36667" type="line"/>
			<point x="221.36667" y="1159.76667" type="line"/>
			<point x="342.43333" y="1167.7"/>
			<point x="435" y="1172.16667"/>
			<point x="500.36667" y="1172.16667" type="curve" smooth="yes"/>
			<point x="600.4" y="1172.16667"/>
			<point x="708" y="1163.86667"/>
			<point x="753.7" y="1104.86667" type="curve" smooth="yes"/>
			<point x="778.06667" y="1078.5"/>
			<point x="792.93333" y="1043.8"/>
			<point x="792.93333" y="994.93333" type="curve" smooth="yes"/>
			<point x="792.93333" y="972.1"/>
			<point x="790.16667" y="945.96667"/>
			<point x="783.63333" y="917.06667" type="curve" smooth="yes"/>
			<point x="617.43333" y="137.23333" type="line"/>
			<point x="-10.86667" y="137.23333" type="line"/>
		</contour>
	</outline>
</glyph>
<glyph name="gimel-hb" format="2">
	<advance width="830.66667"/>
	<unicode hex="05D2"/>
	<anchor x="298.4" y="0" name="bottom"/>
	<anchor x="-96.93333" y="0" name="bottomleft"/>
	<anchor x="278.33333" y="668.4" name="center"/>
	<anchor x="532.26667" y="1097.73333" name="top"/>
	<anchor x="136.93333" y="1097.73333" name="topleft"/>
	<note>
		afii57666
	</note>
	<outline>
		<contour>
			<point x="59.8" y="-7.73333" type="curve" smooth="yes"/>
			<point x="235.43333" y="-7.73333"/>
			<point x="335.43333" y="95.56667"/>
			<point x="423.4" y="205.76667" type="curve"/>
			<point x="432.73333" y="205.76667" type="line"/>
			<point x="411.03333" y="0" type="line"/>
			<point x="545.63333" y="0" type="line"/>
			<point x="756.03333" y="988.63333" type="line" smooth="yes"/>
			<point x="765.43333" y="1032.63333"/>
			<point x="770.13333" y="1074.36667"/>
			<point x="770.13333" y="1112.6" type="curve" smooth="yes"/>
			<point x="770.13333" y="1250.6"/>
			<point x="683.83333" y="1311.16667"/>
			<point x="534.43333" y="1311.16667" type="curve" smooth="yes"/>
			<point x="478.16667" y="1311.16667"/>
			<point x="418.56667" y="1304.76667"/>
			<point x="357.16667" y="1292.2" type="curve"/>
			<point x="327.66667" y="1150.96667" type="line"/>
			<point x="392.63333" y="1164.06667"/>
			<point x="445.73333" y="1170.76667"/>
			<point x="492.8" y="1170.76667" type="curve" smooth="yes"/>
			<point x="563.93333" y="1170.76667"/>
			<point x="597.2" y="1133.96667"/>
			<point x="597.2" y="1078.53333" type="curve" smooth="yes"/>
			<point x="597.2" y="1052.56667"/>
			<point x="593.66667" y="1020.76667"/>
			<point x="586.36667" y="984.43333" type="curve" smooth="yes"/>
			<point x="487.76667" y="519.86667" type="line" smooth="yes"/>
			<point x="437.9" y="288.13333"/>
			<point x="278.8" y="144"/>
			<point x="104.66667" y="144" type="curve" smooth="yes"/>
			<point x="60.83333" y="144"/>
			<point x="21.13333" y="148.23333"/>
			<point x="-15.73333" y="157.46667" type="curve"/>
			<point x="-69.6" y="5.36667" type="line"/>
			<point x="-22.6" y="-3.03333"/>
			<point x="19.86667" y="-7.73333"/>
		</contour>
	</outline>
</glyph>
<glyph name="dalet-hb" format="2">
	<advance width="1027.66667"/>
	<unicode hex="05D3"/>
	<anchor x="397.4" y="0" name="bottom"/>
	<anchor x="-96.93333" y="0" name="bottomleft"/>
	<anchor x="352.1" y="666.86667" name="center"/>
	<anchor x="631.26667" y="1097.73333" name="top"/>
	<anchor x="136.93333" y="1097.73333" name="topleft"/>
	<note>
		afii57667
	</note>
	<outline>
		<contour>
			<point x="478.5" y="0" type="line"/>
			<point x="647.23333" y="0" type="line"/>
			<point x="837" y="893.23333" type="line" smooth="yes"/>
			<point x="856.06667" y="980.03333"/>
			<point x="889.86667" y="1042.6"/>
			<point x="940.2" y="1084.2" type="curve" smooth="yes"/>
			<point x="990.06667" y="1125.33333"/>
			<point x="1033.23333" y="1146.26667"/>
			<point x="1099.16667" y="1168.2" type="curve"/>
			<point x="1125.2" y="1291.16667" type="line"/>
			<point x="178.96667" y="1291.16667" type="line"/>
			<point x="149.46667" y="1153.93333" type="line"/>
			<point x="853.26667" y="1153.93333" type="line"/>
			<point x="840.3" y="1147.33333" type="line" smooth="yes"/>
			<point x="813.66667" y="1132"/>
			<point x="783.83333" y="1106"/>
			<point x="750.56667" y="1069.1" type="curve" smooth="yes"/>
			<point x="716.66667" y="1030.56667"/>
			<point x="683.86667" y="966.86667"/>
			<point x="668.5" y="894.86667" type="curve" smooth="yes"/>
		</contour>
	</outline>
</glyph>
<glyph name="he-hb" format="2">
	<advance width="1248.56667"/>
	<unicode hex="05D4"/>
	<anchor x="507.46667" y="0" name="bottom"/>
	<anchor x="-96.93333" y="0" name="bottomleft"/>
	<anchor x="625.33333" y="666.86667" name="center"/>
	<anchor x="741.33333" y="1097.73333" name="top"/>
	<anchor x="136.93333" y="1097.73333" name="topleft"/>
	<note>
		afii57668
	</note>
	<outline>
		<contour>
			<point x="792.73333" y="0" type="line"/>
			<point x="962.46667" y="0" type="line"/>
			<point x="1157.4" y="917.06667" type="line" smooth="yes"/>
			<point x="1167.5" y="963.16667"/>
			<point x="1172.43333" y="1003.23333"/>
			<point x="1172.43333" y="1037.5" type="curve" smooth="yes"/>
			<point x="1172.43333" y="1065.46667"/>
			<point x="1169.13333" y="1091.83333"/>
			<point x="1163.53333" y="1115.3" type="curve" smooth="yes"/>
			<point x="1150.33333" y="1162.53333"/>
			<point x="1126.8" y="1204.26667"/>
			<point x="1086.4" y="1234.7" type="curve" smooth="yes"/>
			<point x="995.86667" y="1299.4"/>
			<point x="886.86667" y="1311.16667"/>
			<point x="716.46667" y="1311.16667" type="curve" smooth="yes"/>
			<point x="621.96667" y="1311.16667"/>
			<point x="479.3" y="1302.76667"/>
			<point x="290" y="1286.96667" type="curve"/>
			<point x="259.96667" y="1147.13333" type="line"/>
			<point x="467.06667" y="1164.46667"/>
			<point x="604" y="1172.16667"/>
			<point x="690.06667" y="1172.16667" type="curve" smooth="yes"/>
			<point x="763.36667" y="1172.16667"/>
			<point x="844.06667" y="1167.76667"/>
			<point x="893.83333" y="1148.46667" type="curve" smooth="yes"/>
			<point x="961.56667" y="1121.33333"/>
			<point x="996.96667" y="1076.9"/>
			<point x="996.96667" y="994.93333" type="curve" smooth="yes"/>
			<point x="996.96667" y="972.1"/>
			<point x="994.2" y="945.96667"/>
			<point x="987.66667" y="917.06667" type="curve" smooth="yes"/>
		</contour>
		<contour>
			<point x="16.7" y="0" type="line"/>
			<point x="185.2" y="0" type="line"/>
			<point x="355.4" y="799.46667" type="line"/>
			<point x="186.9" y="799.46667" type="line"/>
		</contour>
	</outline>
</glyph>
<glyph name="vav-hb" format="2">
	<advance width="477.06667"/>
	<unicode hex="05D5"/>
	<anchor x="121.6" y="0" name="bottom"/>
	<anchor x="-96.93333" y="0" name="bottomleft"/>
	<anchor x="-3.73333" y="666.86667" name="center"/>
	<anchor x="355.46667" y="1097.73333" name="top"/>
	<anchor x="463.56667" y="1376.13333" name="topleft"/>
	<note>
		afii57669
	</note>
	<outline>
		<contour>
			<point x="18.46667" y="0" type="line"/>
			<point x="187.2" y="0" type="line"/>
			<point x="461.66667" y="1291.16667" type="line"/>
			<point x="292.93333" y="1291.16667" type="line"/>
		</contour>
	</outline>
</glyph>
<glyph name="zayin-hb" format="2">
	<advance width="597.6"/>
	<unicode hex="05D6"/>
	<anchor x="182.36667" y="0" name="bottom"/>
	<anchor x="-96.93333" y="0" name="bottomleft"/>
	<anchor x="14.83333" y="665.86667" name="center"/>
	<anchor x="416.23333" y="1097.73333" name="top"/>
	<anchor x="136.93333" y="1097.73333" name="topleft"/>
	<note>
		afii57670
	</note>
	<outline>
		<contour>
			<point x="92.3" y="0" type="line"/>
			<point x="261.03333" y="0" type="line"/>
			<point x="415.83333" y="728.66667" type="line" smooth="yes"/>
			<point x="428.46667" y="786.06667"/>
			<point x="444.63333" y="840.06667"/>
			<point x="464.56667" y="889.9" type="curve" smooth="yes"/>
			<point x="480.86667" y="930.6"/>
			<point x="500.16667" y="969.06667"/>
			<point x="521.16667" y="1003" type="curve" smooth="yes"/>
			<point x="562.93333" y="1069.86667"/>
			<point x="615.76667" y="1131.66667"/>
			<point x="668.7" y="1167.03333" type="curve"/>
			<point x="694.96667" y="1291.16667" type="line"/>
			<point x="246.1" y="1291.16667" type="line"/>
			<point x="216.6" y="1153.93333" type="line"/>
			<point x="498.13333" y="1153.93333" type="line"/>
			<point x="467.96667" y="1130.7"/>
			<point x="432.36667" y="1094.73333"/>
			<point x="392.1" y="1045.03333" type="curve" smooth="yes"/>
			<point x="326.6" y="967.26667"/>
			<point x="273.83333" y="851.63333"/>
			<point x="247.1" y="728.66667" type="curve" smooth="yes"/>
		</contour>
	</outline>
</glyph>
<glyph name="het-hb" format="2">
	<advance width="1248.56667"/>
	<unicode hex="05D7"/>
	<anchor x="507.46667" y="0" name="bottom"/>
	<anchor x="-96.93333" y="0" name="bottomleft"/>
	<anchor x="624.4" y="549.36667" name="center"/>
	<anchor x="741.33333" y="1097.73333" name="top"/>
	<anchor x="136.93333" y="1097.73333" name="topleft"/>
	<note>
		afii57671
	</note>
	<outline>
		<contour>
			<point x="16.46667" y="0" type="line"/>
			<point x="185.2" y="0" type="line"/>
			<point x="431.63333" y="1159.96667" type="line"/>
			<point x="539.86667" y="1168.1"/>
			<point x="625.93333" y="1172.16667"/>
			<point x="690.06667" y="1172.16667" type="curve" smooth="yes"/>
			<point x="798.06667" y="1172.16667"/>
			<point x="917.2" y="1165.83333"/>
			<point x="966.2" y="1099.26667" type="curve" smooth="yes"/>
			<point x="985.43333" y="1072.9"/>
			<point x="996.96667" y="1039.83333"/>
			<point x="996.96667" y="994.93333" type="curve" smooth="yes"/>
			<point x="996.96667" y="972.1"/>
			<point x="994.2" y="945.96667"/>
			<point x="987.66667" y="917.06667" type="curve" smooth="yes"/>
			<point x="792.73333" y="0" type="line"/>
			<point x="962.46667" y="0" type="line"/>
			<point x="1157.4" y="917.06667" type="line" smooth="yes"/>
			<point x="1167.73333" y="962.46667"/>
			<point x="1172.9" y="1004.4"/>
			<point x="1172.9" y="1042.86667" type="curve" smooth="yes"/>
			<point x="1172.9" y="1081.33333"/>
			<point x="1166.33333" y="1115.16667"/>
			<point x="1154.2" y="1143.3" type="curve" smooth="yes"/>
			<point x="1137.96667" y="1185.63333"/>
			<point x="1113.26667" y="1220.13333"/>
			<point x="1075.2" y="1244.26667" type="curve" smooth="yes"/>
			<point x="987.16667" y="1299.6"/>
			<point x="883.66667" y="1311.16667"/>
			<point x="736.86667" y="1311.16667" type="curve" smooth="yes"/>
			<point x="594.6" y="1311.16667"/>
			<point x="342.83333" y="1292.8"/>
			<point x="290" y="1286.96667" type="curve"/>
		</contour>
	</outline>
</glyph>
<glyph name="tet-hb" format="2">
	<advance width="1249.03333"/>
	<unicode hex="05D8"/>
	<anchor x="507.7" y="0" name="bottom"/>
	<anchor x="-96.93333" y="0" name="bottomleft"/>
	<anchor x="649.7" y="667.1" name="center"/>
	<anchor x="741.56667" y="1097.73333" name="top"/>
	<anchor x="136.93333" y="1097.73333" name="topleft"/>
	<note>
		afii57672
	</note>
	<outline>
		<contour>
			<point x="510.8" y="-19.76667" type="curve" smooth="yes"/>
			<point x="602.96667" y="-19.76667"/>
			<point x="688.13333" y="-1.23333"/>
			<point x="764.3" y="35.36667" type="curve" smooth="yes"/>
			<point x="864.43333" y="83.13333"/>
			<point x="949.63333" y="162.9"/>
			<point x="1017.66667" y="274.2" type="curve" smooth="yes"/>
			<point x="1080.1" y="373.3"/>
			<point x="1127.66667" y="499.1"/>
			<point x="1159.36667" y="649.66667" type="curve" smooth="yes"/>
			<point x="1181.3" y="753.8"/>
			<point x="1192.76667" y="844.3"/>
			<point x="1192.76667" y="922.7" type="curve" smooth="yes"/>
			<point x="1192.76667" y="1023.7"/>
			<point x="1174.76667" y="1125.53333"/>
			<point x="1113.9" y="1199.03333" type="curve" smooth="yes"/>
			<point x="1056.03333" y="1268.23333"/>
			<point x="960.93333" y="1311.16667"/>
			<point x="823.6" y="1311.16667" type="curve" smooth="yes"/>
			<point x="787.93333" y="1311.16667"/>
			<point x="751.33333" y="1307.93333"/>
			<point x="713.26667" y="1302" type="curve"/>
			<point x="683" y="1161.7" type="line"/>
			<point x="711.5" y="1167.76667"/>
			<point x="739" y="1170.53333"/>
			<point x="766.73333" y="1170.53333" type="curve" smooth="yes"/>
			<point x="867.33333" y="1170.53333"/>
			<point x="936.43333" y="1136.06667"/>
			<point x="972.06667" y="1080.03333" type="curve" smooth="yes"/>
			<point x="1003.9" y="1033.7"/>
			<point x="1016.16667" y="966.3"/>
			<point x="1016.16667" y="884.03333" type="curve" smooth="yes"/>
			<point x="1016.16667" y="771.43333"/>
			<point x="979.56667" y="611.53333"/>
			<point x="947.23333" y="507.06667" type="curve" smooth="yes"/>
			<point x="913.73333" y="397.93333"/>
			<point x="863.96667" y="299.53333"/>
			<point x="803.06667" y="235.4" type="curve" smooth="yes"/>
			<point x="738.2" y="163.33333"/>
			<point x="648.3" y="121.56667"/>
			<point x="542.1" y="121.56667" type="curve" smooth="yes"/>
			<point x="441.96667" y="121.56667"/>
			<point x="371.93333" y="158.13333"/>
			<point x="334.53333" y="219.53333" type="curve" smooth="yes"/>
			<point x="305.43333" y="266.7"/>
			<point x="291" y="331.3"/>
			<point x="291" y="413.33333" type="curve" smooth="yes"/>
			<point x="291" y="477.3"/>
			<point x="301.3" y="555.56667"/>
			<point x="321.36667" y="649.66667" type="curve" smooth="yes"/>
			<point x="457.66667" y="1291.16667" type="line"/>
			<point x="287.93333" y="1291.16667" type="line"/>
			<point x="151.63333" y="649.66667" type="line" smooth="yes"/>
			<point x="132.03333" y="556.26667"/>
			<point x="121.73333" y="473.7"/>
			<point x="121.73333" y="400.43333" type="curve" smooth="yes"/>
			<point x="121.73333" y="319.5"/>
			<point x="133.1" y="239.2"/>
			<point x="168.33333" y="172.56667" type="curve" smooth="yes"/>
			<point x="221.03333" y="55.43333"/>
			<point x="330.4" y="-19.76667"/>
		</contour>
	</outline>
</glyph>
<glyph name="yod-hb" format="2">
	<advance width="446.4"/>
	<unicode hex="05D9"/>
	<anchor x="106.76667" y="0" name="bottom"/>
	<anchor x="-96.93333" y="0" name="bottomleft"/>
	<anchor x="40.63333" y="905.06667" name="center"/>
	<anchor x="340.63333" y="1097.73333" name="top"/>
	<anchor x="136.93333" y="1097.73333" name="topleft"/>
	<note>
		afii57673
	</note>
	<outline>
		<contour>
			<point x="108.96667" y="467.3" type="line"/>
			<point x="156.23333" y="467.3" type="line"/>
			<point x="309.63333" y="618.16667" type="line"/>
			<point x="452.96667" y="1291.16667" type="line"/>
			<point x="284.23333" y="1291.16667" type="line"/>
		</contour>
	</outline>
</glyph>
<glyph name="finalkaf-hb" format="2">
	<advance width="999.9"/>
	<unicode hex="05DA"/>
	<anchor x="383.4" y="0" name="bottom"/>
	<anchor x="-96.93333" y="0" name="bottomleft"/>
	<anchor x="370.13333" y="667.86667" name="center"/>
	<anchor x="617.26667" y="1097.73333" name="top"/>
	<anchor x="136.93333" y="1097.73333" name="topleft"/>
	<note>
		afii57674
	</note>
	<outline>
		<contour>
			<point x="451.3" y="-492" type="line"/>
			<point x="621.33333" y="-492" type="line"/>
			<point x="878.8" y="719.8" type="line" smooth="yes"/>
			<point x="892.8" y="786.26667"/>
			<point x="899.8" y="853.26667"/>
			<point x="899.8" y="919.8" type="curve" smooth="yes"/>
			<point x="899.8" y="942.8"/>
			<point x="898.56667" y="969.03333"/>
			<point x="895.1" y="999.73333" type="curve" smooth="yes"/>
			<point x="883.93333" y="1090.83333"/>
			<point x="845.13333" y="1167.16667"/>
			<point x="777.06667" y="1225" type="curve" smooth="yes"/>
			<point x="715.96667" y="1278.5"/>
			<point x="616.6" y="1310.4"/>
			<point x="500.73333" y="1310.4" type="curve" smooth="yes"/>
			<point x="376.23333" y="1310.4"/>
			<point x="254.56667" y="1290.83333"/>
			<point x="182.5" y="1269.86667" type="curve"/>
			<point x="152" y="1126.1" type="line"/>
			<point x="159.8" y="1127.33333"/>
			<point x="175.03333" y="1131.4"/>
			<point x="198.16667" y="1138" type="curve" smooth="yes"/>
			<point x="283.36667" y="1160.8"/>
			<point x="355.43333" y="1171.7"/>
			<point x="443.96667" y="1171.7" type="curve" smooth="yes"/>
			<point x="541.06667" y="1171.7"/>
			<point x="612.4" y="1147.56667"/>
			<point x="659.5" y="1099.3" type="curve" smooth="yes"/>
			<point x="708.2" y="1049.66667"/>
			<point x="729.6" y="975.53333"/>
			<point x="729.6" y="879.63333" type="curve" smooth="yes"/>
			<point x="729.6" y="833.86667"/>
			<point x="723.06667" y="780.23333"/>
			<point x="709" y="720.26667" type="curve" smooth="yes"/>
		</contour>
	</outline>
</glyph>
<glyph name="kaf-hb" format="2">
	<advance width="969.83333"/>
	<unicode hex="05DB"/>
	<anchor x="368.36667" y="0" name="bottom"/>
	<anchor x="-96.93333" y="0" name="bottomleft"/>
	<anchor x="356.46667" y="667.63333" name="center"/>
	<anchor x="602.23333" y="1097.73333" name="top"/>
	<anchor x="136.93333" y="1097.73333" name="topleft"/>
	<note>
		afii57675
	</note>
	<outline>
		<contour>
			<point x="250.73333" y="-20" type="curve" smooth="yes"/>
			<point x="357.36667" y="-20"/>
			<point x="467.26667" y="12.46667"/>
			<point x="542.1" y="58.46667" type="curve" smooth="yes"/>
			<point x="633.5" y="108.6"/>
			<point x="705.93333" y="188.56667"/>
			<point x="752.4" y="264.43333" type="curve" smooth="yes"/>
			<point x="803.46667" y="348.73333"/>
			<point x="836.46667" y="438.53333"/>
			<point x="858.86667" y="542.76667" type="curve" smooth="yes"/>
			<point x="896.16667" y="719.8" type="line" smooth="yes"/>
			<point x="910.93333" y="790.1"/>
			<point x="917.93333" y="854.8"/>
			<point x="917.93333" y="913.66667" type="curve" smooth="yes"/>
			<point x="917.93333" y="943.56667"/>
			<point x="915.16667" y="975.93333"/>
			<point x="910.16667" y="1009.7" type="curve" smooth="yes"/>
			<point x="899.16667" y="1074.96667"/>
			<point x="875.06667" y="1138.13333"/>
			<point x="833.86667" y="1188.6" type="curve" smooth="yes"/>
			<point x="773.6" y="1261.73333"/>
			<point x="658.76667" y="1310.4"/>
			<point x="524.76667" y="1310.4" type="curve" smooth="yes"/>
			<point x="415.6" y="1310.4"/>
			<point x="287.8" y="1298.5"/>
			<point x="200.16667" y="1269.86667" type="curve"/>
			<point x="169.9" y="1126.1" type="line"/>
			<point x="176.93333" y="1127.33333"/>
			<point x="192.16667" y="1131.4"/>
			<point x="216.06667" y="1138" type="curve" smooth="yes"/>
			<point x="302.03333" y="1160.8"/>
			<point x="384.06667" y="1171.7"/>
			<point x="461.63333" y="1171.7" type="curve" smooth="yes"/>
			<point x="567.33333" y="1171.7"/>
			<point x="643.26667" y="1141.8"/>
			<point x="689.66667" y="1085.5" type="curve" smooth="yes"/>
			<point x="728.93333" y="1036.63333"/>
			<point x="746.73333" y="966.33333"/>
			<point x="746.73333" y="879.4" type="curve" smooth="yes"/>
			<point x="746.73333" y="833.63333"/>
			<point x="740.2" y="780"/>
			<point x="726.13333" y="720.26667" type="curve" smooth="yes"/>
			<point x="688.6" y="542.76667" type="line" smooth="yes"/>
			<point x="659.1" y="409"/>
			<point x="596.6" y="301.66667"/>
			<point x="535.43333" y="236.26667" type="curve" smooth="yes"/>
			<point x="473.73333" y="171.33333"/>
			<point x="373.7352" y="121.8"/>
			<point x="269" y="121.8" type="curve" smooth="yes"/>
			<point x="151.9" y="121.8"/>
			<point x="43.66667" y="143.66667"/>
			<point x="0.5" y="154.96667" type="curve" smooth="yes"/>
			<point x="-14.26667" y="159.8"/>
			<point x="-25.96667" y="163.86667"/>
			<point x="-34.36667" y="167.4" type="curve"/>
			<point x="-66.93333" y="13.9" type="line"/>
			<point x="26.06667" y="-9.46667"/>
			<point x="130.16667" y="-20"/>
		</contour>
	</outline>
</glyph>
<glyph name="lamed-hb" format="2">
	<advance width="979.2"/>
	<unicode hex="05DC"/>
	<anchor x="373.16667" y="0" name="bottom"/>
	<anchor x="-96.93333" y="0" name="bottomleft"/>
	<anchor x="345.6" y="667.86667" name="center"/>
	<anchor x="607.03333" y="1097.73333" name="top"/>
	<anchor x="136.93333" y="1097.73333" name="topleft"/>
	<note>
		afii57676
	</note>
	<outline>
		<contour>
			<point x="341.46667" y="0" type="line"/>
			<point x="510.33333" y="0" type="line"/>
			<point x="711.9" y="500.93333" type="line"/>
			<point x="1037.1" y="1153.06667" type="line"/>
			<point x="1067.93333" y="1295.76667" type="line"/>
			<point x="378.36667" y="1295.76667" type="line"/>
			<point x="435.66667" y="1564.8" type="line"/>
			<point x="266.93333" y="1564.8" type="line"/>
			<point x="178.83333" y="1152.4" type="line"/>
			<point x="871.43333" y="1152.4" type="line"/>
			<point x="541.83333" y="495.76667" type="line"/>
		</contour>
	</outline>
</glyph>
<glyph name="finalmem-hb" format="2">
	<advance width="1249.33333"/>
	<unicode hex="05DD"/>
	<anchor x="508.23333" y="0" name="bottom"/>
	<anchor x="-96.93333" y="0" name="bottomleft"/>
	<anchor x="625.16667" y="549.36667" name="center"/>
	<anchor x="742.1" y="1097.73333" name="top"/>
	<anchor x="136.93333" y="1097.73333" name="topleft"/>
	<note>
		afii57677
	</note>
	<outline>
		<contour>
			<point x="17.23333" y="0" type="line"/>
			<point x="963.23333" y="0" type="line"/>
			<point x="1161.2" y="931.3" type="line" smooth="yes"/>
			<point x="1169.9" y="971.1"/>
			<point x="1174.13333" y="1007.66667"/>
			<point x="1174.13333" y="1041" type="curve" smooth="yes"/>
			<point x="1174.13333" y="1123.4"/>
			<point x="1145.53333" y="1193.76667"/>
			<point x="1088.33333" y="1234.93333" type="curve" smooth="yes"/>
			<point x="1001.46667" y="1296.33333"/>
			<point x="893.53333" y="1310.93333"/>
			<point x="737.16667" y="1310.93333" type="curve" smooth="yes"/>
			<point x="595.13333" y="1310.93333"/>
			<point x="343.6" y="1292.8"/>
			<point x="290.76667" y="1286.96667" type="curve"/>
		</contour>
		<contour>
			<point x="214.7" y="137.23333" type="line"/>
			<point x="432.4" y="1159.5" type="line"/>
			<point x="539.93333" y="1167.4"/>
			<point x="626.23333" y="1171.7"/>
			<point x="690.83333" y="1171.93333" type="curve" smooth="yes"/>
			<point x="799.53333" y="1171.93333"/>
			<point x="919.36667" y="1166.76667"/>
			<point x="969.06667" y="1103" type="curve" smooth="yes"/>
			<point x="988.76667" y="1078.5"/>
			<point x="1000.53333" y="1047.53333"/>
			<point x="1000.53333" y="1004.73333" type="curve" smooth="yes"/>
			<point x="1000.53333" y="984.23333"/>
			<point x="998" y="960.43333"/>
			<point x="992.16667" y="934.1" type="curve" smooth="yes"/>
			<point x="822.23333" y="137.23333" type="line"/>
		</contour>
	</outline>
</glyph>
<glyph name="mem-hb" format="2">
	<advance width="1244.06667"/>
	<unicode hex="05DE"/>
	<anchor x="505.6" y="0" name="bottom"/>
	<anchor x="-96.93333" y="0" name="bottomleft"/>
	<anchor x="633.43333" y="667.1" name="center"/>
	<anchor x="739.46667" y="1097.73333" name="top"/>
	<anchor x="136.93333" y="1097.73333" name="topleft"/>
	<note>
		afii57678
	</note>
	<outline>
		<contour>
			<point x="-39.43333" y="0" type="line"/>
			<point x="127.9" y="0" type="line"/>
			<point x="430.3" y="990.53333" type="line"/>
			<point x="447.03333" y="1013.56667" type="line" smooth="yes"/>
			<point x="471.76667" y="1047.6"/>
			<point x="524.5" y="1088.26667"/>
			<point x="585.5" y="1118.16667" type="curve" smooth="yes"/>
			<point x="644.96667" y="1146.53333"/>
			<point x="734.13333" y="1168.9"/>
			<point x="823.9" y="1150.93333" type="curve" smooth="yes"/>
			<point x="947.26667" y="1148.6"/>
			<point x="983.53333" y="1054.33333"/>
			<point x="983.53333" y="968.56667" type="curve" smooth="yes"/>
			<point x="983.53333" y="934.86667"/>
			<point x="978.83333" y="895.13333"/>
			<point x="968.66667" y="849.36667" type="curve" smooth="yes"/>
			<point x="817.1" y="137.23333" type="line"/>
			<point x="545.46667" y="137.23333" type="line"/>
			<point x="516.73333" y="0" type="line"/>
			<point x="957.96667" y="0" type="line"/>
			<point x="1138.26667" y="849.36667" type="line" smooth="yes"/>
			<point x="1151.6" y="909.56667"/>
			<point x="1158" y="963.96667"/>
			<point x="1158" y="1010.8" type="curve" smooth="yes"/>
			<point x="1158" y="1139.4"/>
			<point x="1112.7" y="1273.13333"/>
			<point x="920.13333" y="1285.73333" type="curve" smooth="yes"/>
			<point x="871.9" y="1301.36667"/>
			<point x="812.76667" y="1306.56667"/>
			<point x="751.83333" y="1298.13333" type="curve" smooth="yes"/>
			<point x="633.56667" y="1277.43333"/>
			<point x="532.56667" y="1229.8"/>
			<point x="456.13333" y="1156.86667" type="curve"/>
			<point x="442.9" y="1156.86667" type="line"/>
			<point x="443.13333" y="1169.4"/>
			<point x="442.36667" y="1183.23333"/>
			<point x="440.83333" y="1198.06667" type="curve" smooth="yes"/>
			<point x="439.3" y="1227.93333"/>
			<point x="433.53333" y="1260.4"/>
			<point x="424.6" y="1295.76667" type="curve"/>
			<point x="261.7" y="1295.76667" type="line"/>
			<point x="267.16667" y="1274.36667"/>
			<point x="282.66667" y="1161.2"/>
			<point x="282.66667" y="1116.5" type="curve" smooth="yes"/>
			<point x="282.66667" y="1077.73333"/>
			<point x="272.1" y="1013.5"/>
			<point x="255.56667" y="961.36667" type="curve" smooth="yes"/>
		</contour>
	</outline>
</glyph>
<glyph name="finalnun-hb" format="2">
	<advance width="448.03333"/>
	<unicode hex="05DF"/>
	<anchor x="107.2" y="0" name="bottom"/>
	<anchor x="-96.93333" y="0" name="bottomleft"/>
	<anchor x="224.13333" y="549.36667" name="center"/>
	<anchor x="341.06667" y="1097.73333" name="top"/>
	<anchor x="136.93333" y="1097.73333" name="topleft"/>
	<note>
		afii57679
	</note>
	<outline>
		<contour>
			<point x="-100.43333" y="-487.56667" type="line"/>
			<point x="68.53333" y="-487.56667" type="line"/>
			<point x="360.4" y="885.4" type="line" smooth="yes"/>
			<point x="386.96667" y="1009.3"/>
			<point x="387.13333" y="1135.43333"/>
			<point x="387.13333" y="1197.73333" type="curve" smooth="yes"/>
			<point x="387.13333" y="1228.5"/>
			<point x="385.13333" y="1259.56667"/>
			<point x="380.6" y="1291.16667" type="curve"/>
			<point x="210.86667" y="1291.16667" type="line"/>
			<point x="216.86667" y="1238.43333"/>
			<point x="219.4" y="1190.53333"/>
			<point x="219.4" y="1135.86667" type="curve" smooth="yes"/>
			<point x="219.4" y="1058.26667"/>
			<point x="210" y="975.13333"/>
			<point x="191.43333" y="885.4" type="curve" smooth="yes"/>
		</contour>
	</outline>
</glyph>
<glyph name="nun-hb" format="2">
	<advance width="849.03333"/>
	<unicode hex="05E0"/>
	<anchor x="307.7" y="0" name="bottom"/>
	<anchor x="-96.93333" y="0" name="bottomleft"/>
	<anchor x="323.66667" y="666.86667" name="center"/>
	<anchor x="541.56667" y="1097.73333" name="top"/>
	<anchor x="136.93333" y="1097.73333" name="topleft"/>
	<note>
		afii57680
	</note>
	<outline>
		<contour>
			<point x="-48.06667" y="0" type="line"/>
			<point x="524.06667" y="0" type="line"/>
			<point x="544.76667" y="50.93333" type="line" smooth="yes"/>
			<point x="572.7" y="117.56667"/>
			<point x="617.33333" y="250.86667"/>
			<point x="638.96667" y="349.8" type="curve" smooth="yes"/>
			<point x="773.93333" y="984.2" type="line" smooth="yes"/>
			<point x="781.33333" y="1021.03333"/>
			<point x="785.03333" y="1053.93333"/>
			<point x="785.03333" y="1083.9" type="curve" smooth="yes"/>
			<point x="785.03333" y="1144.06667"/>
			<point x="771.23333" y="1201.63333"/>
			<point x="733.9" y="1243.03333" type="curve" smooth="yes"/>
			<point x="697.46667" y="1284.3"/>
			<point x="637.53333" y="1311.16667"/>
			<point x="535.63333" y="1311.16667" type="curve" smooth="yes"/>
			<point x="466.66667" y="1311.16667"/>
			<point x="406.1" y="1306.16667"/>
			<point x="353.16667" y="1295.93333" type="curve"/>
			<point x="322.9" y="1154.46667" type="line"/>
			<point x="387.76667" y="1165"/>
			<point x="440.9" y="1170.53333"/>
			<point x="487.06667" y="1170.53333" type="curve" smooth="yes"/>
			<point x="560.96667" y="1170.53333"/>
			<point x="598.66667" y="1136.93333"/>
			<point x="605.53333" y="1087.9" type="curve" smooth="yes"/>
			<point x="609.8" y="1076.5"/>
			<point x="611.73333" y="1061.63333"/>
			<point x="611.73333" y="1044" type="curve" smooth="yes"/>
			<point x="611.73333" y="1027.46667"/>
			<point x="609.73333" y="1007.86667"/>
			<point x="605.2" y="984.2" type="curve" smooth="yes"/>
			<point x="470.23333" y="349.8" type="line" smooth="yes"/>
			<point x="455.33333" y="280.36667"/>
			<point x="432.06667" y="210.1"/>
			<point x="400.96667" y="137.23333" type="curve"/>
			<point x="-19.33333" y="137.23333" type="line"/>
		</contour>
	</outline>
</glyph>
<glyph name="samekh-hb" format="2">
	<advance width="1193.76667"/>
	<unicode hex="05E1"/>
	<anchor x="480.33333" y="0" name="bottom"/>
	<anchor x="-96.93333" y="0" name="bottomleft"/>
	<anchor x="601.2" y="666.86667" name="center"/>
	<anchor x="714.2" y="1097.73333" name="top"/>
	<anchor x="136.93333" y="1097.73333" name="topleft"/>
	<note>
		afii57681
	</note>
	<outline>
		<contour>
			<point x="454.33333" y="-19.76667" type="curve" smooth="yes"/>
			<point x="773.46667" y="-19.76667"/>
			<point x="1006.5" y="203.46667"/>
			<point x="1101.63333" y="647.76667" type="curve" smooth="yes"/>
			<point x="1120.93333" y="742.1"/>
			<point x="1130.46667" y="826.6"/>
			<point x="1130.46667" y="900.03333" type="curve" smooth="yes"/>
			<point x="1130.46667" y="1107.23333"/>
			<point x="1051.5" y="1311.16667"/>
			<point x="737.5" y="1311.16667" type="curve" smooth="yes"/>
			<point x="597.13333" y="1311.16667"/>
			<point x="434.13333" y="1305.46667"/>
			<point x="249.03333" y="1295.06667" type="curve"/>
			<point x="219.3" y="1153.13333" type="line"/>
			<point x="239.96667" y="1154.36667"/>
			<point x="361.83333" y="1159.66667"/>
			<point x="373.3" y="1160.13333" type="curve"/>
			<point x="237.73333" y="1056.03333"/>
			<point x="144.6" y="885.83333"/>
			<point x="93.66667" y="647.76667" type="curve" smooth="yes"/>
			<point x="73.6" y="552.2"/>
			<point x="63.06667" y="463.1"/>
			<point x="63.06667" y="380.76667" type="curve" smooth="yes"/>
			<point x="63.06667" y="195.96667"/>
			<point x="135.2" y="-19.76667"/>
		</contour>
		<contour>
			<point x="484.46667" y="121.1" type="curve" smooth="yes"/>
			<point x="308.7" y="121.1"/>
			<point x="236.26667" y="223.1"/>
			<point x="236.26667" y="408.46667" type="curve" smooth="yes"/>
			<point x="236.26667" y="471.73333"/>
			<point x="246.56667" y="551.83333"/>
			<point x="267.4" y="647.76667" type="curve" smooth="yes"/>
			<point x="317.56667" y="887.23333"/>
			<point x="403.16667" y="1048.86667"/>
			<point x="544.9" y="1166.4" type="curve"/>
			<point x="573.2" y="1169.93333"/>
			<point x="663.83333" y="1171.93333"/>
			<point x="715.13333" y="1171.93333" type="curve" smooth="yes"/>
			<point x="783.03333" y="1171.93333"/>
			<point x="845.23333" y="1150.5"/>
			<point x="882.86667" y="1114.76667" type="curve" smooth="yes"/>
			<point x="931.93333" y="1068.9"/>
			<point x="956.73333" y="994.23333"/>
			<point x="956.73333" y="890.3" type="curve" smooth="yes"/>
			<point x="956.73333" y="765.23333"/>
			<point x="915" y="537.7"/>
			<point x="834.36667" y="384.03333" type="curve" smooth="yes"/>
			<point x="755.53333" y="212.63333"/>
			<point x="646.86667" y="121.1"/>
		</contour>
	</outline>
</glyph>
<glyph name="ayin-hb" format="2">
	<advance width="1244.23333"/>
	<unicode hex="05E2"/>
	<anchor x="505.56667" y="0" name="bottom"/>
	<anchor x="-96.93333" y="0" name="bottomleft"/>
	<anchor x="622.5" y="549.36667" name="center"/>
	<anchor x="739.43333" y="1097.73333" name="top"/>
	<anchor x="136.93333" y="1097.73333" name="topleft"/>
	<note>
		afii57682
	</note>
	<outline>
		<contour>
			<point x="-74.3" y="-53.9" type="line"/>
			<point x="255.06667" y="-6.13333" type="line"/>
			<point x="507.4" y="30.06667"/>
			<point x="711.66667" y="138.5"/>
			<point x="855.36667" y="298.23333" type="curve" smooth="yes"/>
			<point x="978.8" y="420.76667"/>
			<point x="1066.33333" y="565.06667"/>
			<point x="1118.2" y="732.66667" type="curve" smooth="yes"/>
			<point x="1291.73333" y="1291.16667" type="line"/>
			<point x="1131.13333" y="1291.16667" type="line"/>
			<point x="957.2" y="728.46667" type="line" smooth="yes"/>
			<point x="920.8" y="613.96667"/>
			<point x="863.46667" y="511.6"/>
			<point x="791.1" y="425.43333" type="curve" smooth="yes"/>
			<point x="709.96667" y="328.7"/>
			<point x="611.03333" y="252.33333"/>
			<point x="501.2" y="202.76667" type="curve"/>
			<point x="489.1" y="712.3" type="line"/>
			<point x="459.53333" y="1291.16667" type="line"/>
			<point x="293.33333" y="1291.16667" type="line"/>
			<point x="356.73333" y="80.46667" type="line"/>
			<point x="412.5" y="163.1" type="line"/>
			<point x="355.56667" y="147.96667"/>
			<point x="300.7" y="135.13333"/>
			<point x="248.36667" y="127.66667" type="curve" smooth="yes"/>
			<point x="-45.33333" y="85.43333" type="line"/>
		</contour>
	</outline>
</glyph>
<glyph name="finalpe-hb" format="2">
	<advance width="1206.26667"/>
	<unicode hex="05E3"/>
	<anchor x="486.7" y="0" name="bottom"/>
	<anchor x="-96.93333" y="0" name="bottomleft"/>
	<anchor x="608.83333" y="859.33333" name="center"/>
	<anchor x="720.56667" y="1097.73333" name="top"/>
	<anchor x="136.93333" y="1097.73333" name="topleft"/>
	<note>
		afii57683
	</note>
	<outline>
		<contour>
			<point x="657.86667" y="-492" type="line"/>
			<point x="827.76667" y="-492" type="line"/>
			<point x="1069.76667" y="645.7" type="line" smooth="yes"/>
			<point x="1090.06667" y="741.2"/>
			<point x="1100.6" y="831.23333"/>
			<point x="1100.6" y="914.5" type="curve" smooth="yes"/>
			<point x="1100.6" y="1016.43333"/>
			<point x="1080.2" y="1118.8"/>
			<point x="1011.63333" y="1198.6" type="curve" smooth="yes"/>
			<point x="949.26667" y="1268.5"/>
			<point x="849.93333" y="1311.16667"/>
			<point x="708.16667" y="1311.16667" type="curve" smooth="yes"/>
			<point x="589.33333" y="1311.16667"/>
			<point x="476.73333" y="1278.13333"/>
			<point x="369.83333" y="1211.06667" type="curve" smooth="yes"/>
			<point x="246.16667" y="1138.83333"/>
			<point x="152.46667" y="1012.16667"/>
			<point x="119.36667" y="856.43333" type="curve" smooth="yes"/>
			<point x="108.5" y="806.1"/>
			<point x="106.13333" y="769.96667"/>
			<point x="106.13333" y="734.43333" type="curve" smooth="yes"/>
			<point x="106.13333" y="579.4"/>
			<point x="202.16667" y="436.56667"/>
			<point x="413.23333" y="434.7" type="curve" smooth="yes"/>
			<point x="439.46667" y="434" type="line"/>
			<point x="493" y="558.96667" type="line"/>
			<point x="463.83333" y="564.46667" type="line" smooth="yes"/>
			<point x="395.43333" y="574.83333"/>
			<point x="348.5" y="597.73333"/>
			<point x="320.4" y="625.76667" type="curve" smooth="yes"/>
			<point x="281.56667" y="663.76667"/>
			<point x="269.4" y="714.36667"/>
			<point x="269.4" y="765.6" type="curve" smooth="yes"/>
			<point x="269.4" y="853.2"/>
			<point x="296.46667" y="933.06667"/>
			<point x="350.83333" y="1005.2" type="curve" smooth="yes"/>
			<point x="373.33333" y="1040"/>
			<point x="401.93333" y="1070.86667"/>
			<point x="433.76667" y="1095.4" type="curve" smooth="yes"/>
			<point x="491.66667" y="1139.1"/>
			<point x="576.1" y="1170.06667"/>
			<point x="687.4" y="1170.06667" type="curve" smooth="yes"/>
			<point x="865.4" y="1170.06667"/>
			<point x="930.56667" y="1057.53333"/>
			<point x="930.56667" y="882.73333" type="curve" smooth="yes"/>
			<point x="930.56667" y="822.23333"/>
			<point x="920.33333" y="743.4"/>
			<point x="899.86667" y="645.7" type="curve" smooth="yes"/>
		</contour>
	</outline>
</glyph>
<glyph name="pe-hb" format="2">
	<advance width="1176.13333"/>
	<unicode hex="05E4"/>
	<anchor x="471.13333" y="0" name="bottom"/>
	<anchor x="-96.93333" y="0" name="bottomleft"/>
	<anchor x="632.36667" y="845.76667" name="center"/>
	<anchor x="705" y="1097.73333" name="top"/>
	<anchor x="136.93333" y="1097.73333" name="topleft"/>
	<note>
		afii57684
	</note>
	<outline>
		<contour>
			<point x="439.73333" y="-20" type="curve" smooth="yes"/>
			<point x="747.43333" y="-20"/>
			<point x="962.2" y="167.8"/>
			<point x="1066.83333" y="579.9" type="curve" smooth="yes"/>
			<point x="1100.43333" y="693.13333"/>
			<point x="1118.66667" y="809.53333"/>
			<point x="1118.66667" y="901.46667" type="curve" smooth="yes"/>
			<point x="1118.66667" y="1118.93333"/>
			<point x="1030.6" y="1311.16667"/>
			<point x="725.46667" y="1311.16667" type="curve" smooth="yes"/>
			<point x="606.63333" y="1311.16667"/>
			<point x="494.03333" y="1278.13333"/>
			<point x="387.66667" y="1211.06667" type="curve" smooth="yes"/>
			<point x="263.76667" y="1138.6"/>
			<point x="170.53333" y="1012.16667"/>
			<point x="137.43333" y="856.43333" type="curve" smooth="yes"/>
			<point x="126.56667" y="806.1"/>
			<point x="124.2" y="770.2"/>
			<point x="124.2" y="734.66667" type="curve" smooth="yes"/>
			<point x="124.2" y="579.4"/>
			<point x="219.3" y="437.96667"/>
			<point x="431.06667" y="434.7" type="curve" smooth="yes"/>
			<point x="457.3" y="433.3" type="line"/>
			<point x="510.06667" y="558.96667" type="line"/>
			<point x="481.13333" y="562.93333" type="line" smooth="yes"/>
			<point x="336.63333" y="566.66667"/>
			<point x="287" y="676.06667"/>
			<point x="287" y="775.06667" type="curve" smooth="yes"/>
			<point x="287" y="860.13333"/>
			<point x="314.3" y="936.76667"/>
			<point x="368.9" y="1005.2" type="curve" smooth="yes"/>
			<point x="390" y="1035.1"/>
			<point x="416.03333" y="1063.86667"/>
			<point x="446.7" y="1090.5" type="curve" smooth="yes"/>
			<point x="503.83333" y="1137.46667"/>
			<point x="593.2" y="1170.06667"/>
			<point x="697.03333" y="1170.06667" type="curve" smooth="yes"/>
			<point x="876.5" y="1170.06667"/>
			<point x="944.86667" y="1060.83333"/>
			<point x="944.86667" y="886.6" type="curve" smooth="yes"/>
			<point x="944.86667" y="772.13333"/>
			<point x="908.03333" y="610.13333"/>
			<point x="874.76667" y="503.1" type="curve" smooth="yes"/>
			<point x="838.93333" y="384.86667"/>
			<point x="791.03333" y="285.3"/>
			<point x="721.03333" y="215.33333" type="curve" smooth="yes"/>
			<point x="659.66667" y="155.63333"/>
			<point x="573.5" y="119"/>
			<point x="471.73333" y="119" type="curve" smooth="yes"/>
			<point x="355" y="119"/>
			<point x="237.96667" y="125.23333"/>
			<point x="121.16667" y="138.7" type="curve"/>
			<point x="91.9" y="2.1" type="line"/>
			<point x="131.93333" y="-3.36667" type="line" smooth="yes"/>
			<point x="204.3" y="-13.6"/>
			<point x="316.8" y="-20"/>
		</contour>
	</outline>
</glyph>
<glyph name="finaltsadi-hb" format="2">
	<advance width="980.7"/>
	<unicode hex="05E5"/>
	<anchor x="373.53333" y="0" name="bottom"/>
	<anchor x="-96.93333" y="0" name="bottomleft"/>
	<anchor x="490.46667" y="549.36667" name="center"/>
	<anchor x="607.4" y="1097.73333" name="top"/>
	<anchor x="136.93333" y="1097.73333" name="topleft"/>
	<note>
		afii57685
	</note>
	<outline>
		<contour>
			<point x="49.7" y="-492" type="line"/>
			<point x="218.43333" y="-492" type="line"/>
			<point x="430.86667" y="509.9" type="line"/>
			<point x="358.16667" y="434.86667" type="line"/>
			<point x="420.4" y="447.9"/>
			<point x="483.93333" y="460.16667"/>
			<point x="546.16667" y="472.43333" type="curve" smooth="yes"/>
			<point x="645.96667" y="490.83333"/>
			<point x="733.96667" y="534.53333"/>
			<point x="794.06667" y="589.16667" type="curve" smooth="yes"/>
			<point x="868.93333" y="657.93333"/>
			<point x="919.13333" y="757.83333"/>
			<point x="945.53333" y="883.03333" type="curve" smooth="yes"/>
			<point x="1031.73333" y="1291.16667" type="line"/>
			<point x="864" y="1291.16667" type="line"/>
			<point x="778.5" y="886.53333" type="line" smooth="yes"/>
			<point x="746" y="734.23333"/>
			<point x="665.06667" y="634.5"/>
			<point x="561.03333" y="610.73333" type="curve" smooth="yes"/>
			<point x="496.83333" y="596.93333"/>
			<point x="431.63333" y="583.9"/>
			<point x="367.43333" y="570.1" type="curve"/>
			<point x="447" y="508.4" type="line"/>
			<point x="331.16667" y="1291.16667" type="line"/>
			<point x="155.43333" y="1291.16667" type="line"/>
			<point x="272.33333" y="557.46667" type="line"/>
		</contour>
	</outline>
</glyph>
<glyph name="tsadi-hb" format="2">
	<advance width="1110.73333"/>
	<unicode hex="05E6"/>
	<anchor x="438.93333" y="0" name="bottom"/>
	<anchor x="-96.93333" y="0" name="bottomleft"/>
	<anchor x="218.3" y="502.7" name="center"/>
	<anchor x="672.8" y="1097.73333" name="top"/>
	<anchor x="136.93333" y="1097.73333" name="topleft"/>
	<note>
		afii57686
	</note>
	<outline>
		<contour>
			<point x="-69.13333" y="0" type="line"/>
			<point x="880.7" y="0" type="line"/>
			<point x="901.63333" y="99.63333" type="line"/>
			<point x="710.66667" y="496.66667" type="line"/>
			<point x="763.76667" y="537.16667"/>
			<point x="814.26667" y="583.66667"/>
			<point x="860.16667" y="634.4" type="curve" smooth="yes"/>
			<point x="957.56667" y="742.76667"/>
			<point x="1035.73333" y="878.53333"/>
			<point x="1083.7" y="1035.53333" type="curve" smooth="yes"/>
			<point x="1109.93333" y="1121"/>
			<point x="1135.93333" y="1205.7"/>
			<point x="1162.16667" y="1291.16667" type="curve"/>
			<point x="1003.1" y="1291.16667" type="line"/>
			<point x="921.76667" y="1026.9" type="line" smooth="yes"/>
			<point x="871.16667" y="863.56667"/>
			<point x="781.06667" y="728.33333"/>
			<point x="651.7" y="621.2" type="curve"/>
			<point x="641.5" y="642.36667"/>
			<point x="632.3" y="664.06667"/>
			<point x="622.1" y="685.23333" type="curve"/>
			<point x="384.06667" y="1291.16667" type="line"/>
			<point x="201.4" y="1291.16667" type="line"/>
			<point x="490.93333" y="581.4" type="line"/>
			<point x="704.03333" y="135.13333" type="line"/>
			<point x="663.93333" y="135.83333"/>
			<point x="623.06667" y="136.53333"/>
			<point x="582.96667" y="137.23333" type="curve"/>
			<point x="-39.63333" y="137.23333" type="line"/>
		</contour>
	</outline>
</glyph>
<glyph name="qof-hb" format="2">
	<advance width="1190.2"/>
	<unicode hex="05E7"/>
	<anchor x="478.16667" y="0" name="bottom"/>
	<anchor x="-96.93333" y="0" name="bottomleft"/>
	<anchor x="580.86667" y="667.4" name="center"/>
	<anchor x="712.03333" y="1097.73333" name="top"/>
	<anchor x="136.93333" y="1097.73333" name="topleft"/>
	<note>
		afii57687
	</note>
	<outline>
		<contour>
			<point x="528.43333" y="0" type="curve"/>
			<point x="694.93333" y="0" type="line"/>
			<point x="701.03333" y="27.26667" type="line" smooth="yes"/>
			<point x="712.73333" y="86.13333"/>
			<point x="768.7" y="212.33333"/>
			<point x="814.96667" y="311.8" type="curve" smooth="yes"/>
			<point x="830.1" y="345.16667"/>
			<point x="936.26667" y="561.63333"/>
			<point x="944.86667" y="574.8" type="curve" smooth="yes"/>
			<point x="1252.93333" y="1171.43333" type="line"/>
			<point x="1277.93333" y="1291.16667" type="line"/>
			<point x="297.23333" y="1291.16667" type="line"/>
			<point x="268.5" y="1153.93333" type="line"/>
			<point x="1071.6" y="1153.93333" type="line"/>
			<point x="775.2" y="576.66667" type="line"/>
			<point x="771.5" y="568.73333"/>
			<point x="765.26667" y="556.96667"/>
			<point x="757.73333" y="542.66667" type="curve" smooth="yes"/>
			<point x="629.3" y="285.3"/>
			<point x="550.46667" y="100.8"/>
			<point x="534.53333" y="27.26667" type="curve" smooth="yes"/>
			<point x="532.83333" y="18"/>
			<point x="530.13333" y="9.26667"/>
		</contour>
		<contour>
			<point x="-80.46667" y="-492" type="line"/>
			<point x="88.26667" y="-492" type="line"/>
			<point x="355.2" y="763.9" type="line"/>
			<point x="186.46667" y="763.9" type="line"/>
		</contour>
	</outline>
</glyph>
<glyph name="resh-hb" format="2">
	<advance width="1014.83333"/>
	<unicode hex="05E8"/>
	<anchor x="390.86667" y="0" name="bottom"/>
	<anchor x="-96.93333" y="0" name="bottomleft"/>
	<anchor x="352.5" y="666.86667" name="center"/>
	<anchor x="624.73333" y="1097.73333" name="top"/>
	<anchor x="136.93333" y="1097.73333" name="topleft"/>
	<note>
		afii57688
	</note>
	<outline>
		<contour>
			<point x="563.6" y="0" type="line"/>
			<point x="732.33333" y="0" type="line"/>
			<point x="927.26667" y="917.06667" type="line" smooth="yes"/>
			<point x="937.36667" y="963.16667"/>
			<point x="942.3" y="1003.23333"/>
			<point x="942.3" y="1037.5" type="curve" smooth="yes"/>
			<point x="942.3" y="1069.66667"/>
			<point x="939.46667" y="1103.03333"/>
			<point x="928.73333" y="1132.8" type="curve" smooth="yes"/>
			<point x="911.1" y="1180.73333"/>
			<point x="882.66667" y="1221.3"/>
			<point x="836.43333" y="1247.76667" type="curve" smooth="yes"/>
			<point x="744.96667" y="1303.36667"/>
			<point x="645.46667" y="1311.16667"/>
			<point x="476.06667" y="1311.16667" type="curve" smooth="yes"/>
			<point x="404.66667" y="1311.16667"/>
			<point x="309.66667" y="1307.23333"/>
			<point x="190.6" y="1298.6" type="curve"/>
			<point x="161.1" y="1158.6" type="line"/>
			<point x="312.23333" y="1168.23333"/>
			<point x="389.76667" y="1172.16667"/>
			<point x="488.53333" y="1172.16667" type="curve" smooth="yes"/>
			<point x="541.76667" y="1172.16667"/>
			<point x="614.53333" y="1166.63333"/>
			<point x="656.46667" y="1151.96667" type="curve" smooth="yes"/>
			<point x="686.8" y="1140.83333"/>
			<point x="715.13333" y="1125.63333"/>
			<point x="733.03333" y="1102.3" type="curve" smooth="yes"/>
			<point x="754.36667" y="1075.7"/>
			<point x="767.83333" y="1041.7"/>
			<point x="767.83333" y="994.93333" type="curve" smooth="yes"/>
			<point x="767.83333" y="972.1"/>
			<point x="765.06667" y="945.96667"/>
			<point x="758.53333" y="917.06667" type="curve" smooth="yes"/>
		</contour>
	</outline>
</glyph>
<glyph name="shin-hb" format="2">
	<advance width="1475.7"/>
	<unicode hex="05E9"/>
	<anchor x="621.3" y="0" name="bottom"/>
	<anchor x="-96.93333" y="0" name="bottomleft"/>
	<anchor x="778.53333" y="446.26667" name="center"/>
	<anchor x="855.16667" y="1097.73333" name="top"/>
	<anchor x="380.66667" y="1374.13333" name="topleft"/>
	<anchor x="1497.1" y="1236.73333" name="topright"/>
	<note>
		afii57689
	</note>
	<outline>
		<contour>
			<point x="71.56667" y="0" type="line"/>
			<point x="489.3" y="0" type="line" smooth="yes"/>
			<point x="565.3" y="0"/>
			<point x="640.06667" y="11.43333"/>
			<point x="711.6" y="34.06667" type="curve" smooth="yes"/>
			<point x="854.46667" y="75.3"/>
			<point x="982.7" y="155.7"/>
			<point x="1090.53333" y="267.5" type="curve" smooth="yes"/>
			<point x="1207.83333" y="390.76667"/>
			<point x="1299.53333" y="549.23333"/>
			<point x="1355.03333" y="727.76667" type="curve" smooth="yes"/>
			<point x="1529.43333" y="1291.16667" type="line"/>
			<point x="1370.93333" y="1291.16667" type="line"/>
			<point x="1198.46667" y="729.86667" type="line" smooth="yes"/>
			<point x="1160.53333" y="605.13333"/>
			<point x="1103.46667" y="497.23333"/>
			<point x="1028.2" y="405.7" type="curve" smooth="yes"/>
			<point x="891.5" y="236.4"/>
			<point x="707.76667" y="136.46667"/>
			<point x="528.53333" y="136.46667" type="curve" smooth="yes"/>
			<point x="250.13333" y="136.46667" type="line"/>
			<point x="294.7" y="494.26667" type="line"/>
			<point x="221.13333" y="418.53333" type="line"/>
			<point x="239.26667" y="419.3"/>
			<point x="256.4" y="420.06667"/>
			<point x="274.53333" y="420.83333" type="curve" smooth="yes"/>
			<point x="445.33333" y="448.43333"/>
			<point x="566.9" y="496.86667"/>
			<point x="667.06667" y="593.93333" type="curve" smooth="yes"/>
			<point x="763.46667" y="686.7"/>
			<point x="827.26667" y="806.66667"/>
			<point x="883.76667" y="988.86667" type="curve" smooth="yes"/>
			<point x="976.3" y="1291.16667" type="line"/>
			<point x="819.26667" y="1291.16667" type="line"/>
			<point x="726.26667" y="987.7" type="line" smooth="yes"/>
			<point x="683" y="849.53333"/>
			<point x="624.3" y="722.06667"/>
			<point x="526.63333" y="650.36667" type="curve" smooth="yes"/>
			<point x="460.63333" y="601.6"/>
			<point x="398.06667" y="575.7"/>
			<point x="279.2" y="548.1" type="curve" smooth="yes"/>
			<point x="268.26667" y="547.33333"/>
			<point x="255.76667" y="552.93333"/>
			<point x="240.16667" y="567.8" type="curve"/>
			<point x="293.7" y="484.1" type="line"/>
			<point x="397.83333" y="1291.16667" type="line"/>
			<point x="237.03333" y="1291.16667" type="line"/>
		</contour>
	</outline>
</glyph>
<glyph name="tav-hb" format="2">
	<advance width="1301.3"/>
	<unicode hex="05EA"/>
	<anchor x="533.83333" y="0" name="bottom"/>
	<anchor x="-96.93333" y="0" name="bottomleft"/>
	<anchor x="709.63333" y="664" name="center"/>
	<anchor x="767.7" y="1097.73333" name="top"/>
	<anchor x="136.93333" y="1097.73333" name="topleft"/>
	<note>
		afii57690
	</note>
	<outline>
		<contour>
			<point x="22" y="-4.43333" type="curve" smooth="yes"/>
			<point x="226.06667" y="-4.43333"/>
			<point x="347.1" y="104.16667"/>
			<point x="394.06667" y="328.3" type="curve" smooth="yes"/>
			<point x="572.83333" y="1166.33333" type="line"/>
			<point x="644.1" y="1170.4"/>
			<point x="706.43333" y="1171.93333"/>
			<point x="760.13333" y="1171.93333" type="curve" smooth="yes"/>
			<point x="859.9" y="1171.93333"/>
			<point x="971.2" y="1163.23333"/>
			<point x="1018.13333" y="1101.6" type="curve" smooth="yes"/>
			<point x="1039.23333" y="1075"/>
			<point x="1052.46667" y="1041.23333"/>
			<point x="1052.46667" y="994.7" type="curve" smooth="yes"/>
			<point x="1052.46667" y="971.86667"/>
			<point x="1049.7" y="945.73333"/>
			<point x="1043.16667" y="916.83333" type="curve" smooth="yes"/>
			<point x="848.23333" y="0" type="line"/>
			<point x="1017.2" y="0" type="line"/>
			<point x="1212.83333" y="920.8" type="line" smooth="yes"/>
			<point x="1222.93333" y="964.56667"/>
			<point x="1227.86667" y="1005.56667"/>
			<point x="1227.86667" y="1043.56667" type="curve" smooth="yes"/>
			<point x="1227.86667" y="1121.6"/>
			<point x="1201.7" y="1194.1"/>
			<point x="1135.96667" y="1239.86667" type="curve" smooth="yes"/>
			<point x="1054.3" y="1297.9"/>
			<point x="937.9" y="1310.93333"/>
			<point x="798.5" y="1310.93333" type="curve" smooth="yes"/>
			<point x="660.83333" y="1310.93333"/>
			<point x="489.76667" y="1302.76667"/>
			<point x="285.3" y="1286.96667" type="curve"/>
			<point x="255.03333" y="1146.9" type="line"/>
			<point x="304.33333" y="1150.13333"/>
			<point x="352.86667" y="1153.9"/>
			<point x="402.16667" y="1157.13333" type="curve"/>
			<point x="225.33333" y="328.3" type="line" smooth="yes"/>
			<point x="214.5" y="276.66667"/>
			<point x="198.6" y="236.56667"/>
			<point x="176.4" y="206.3" type="curve" smooth="yes"/>
			<point x="143.3" y="159"/>
			<point x="96.3" y="136.2"/>
			<point x="38.9" y="136.2" type="curve" smooth="yes"/>
			<point x="10.8" y="136.2"/>
			<point x="-15.63333" y="138.13333"/>
			<point x="-40.63333" y="141.76667" type="curve"/>
			<point x="-68.43333" y="12.26667" type="line"/>
			<point x="-32.9" y="1.36667"/>
			<point x="-4.66667" y="-4.43333"/>
		</contour>
	</outline>
</glyph>
<glyph name="dagesh-hb.small" format="2">
	<advance width="0"/>
	<anchor x="-5.1" y="528.06667" name="_center"/>
	<note>
		afii57807
	</note>
	<outline>
		<contour>
			<point x="-18.13333" y="456.8" type="curve" smooth="yes"/>
			<point x="32.83333" y="456.8"/>
			<point x="61.13333" y="498.2"/>
			<point x="61.13333" y="548" type="curve" smooth="yes"/>
			<point x="61.13333" y="581.46667"/>
			<point x="42.03333" y="599.33333"/>
			<point x="6.4" y="599.33333" type="curve" smooth="yes"/>
			<point x="-43.33333" y="599.33333"/>
			<point x="-70.63333" y="555.1"/>
			<point x="-70.63333" y="505.83333" type="curve" smooth="yes"/>
			<point x="-70.63333" y="473.43333"/>
			<point x="-53" y="456.8"/>
		</contour>
	</outline>
</glyph>
<glyph name="imoddotless" format="2">
	<advance width="449"/>
	<anchor x="221" y="588" name="bottom"/>
	<anchor x="369" y="1246" name="top"/>
	<anchor x="510" y="1246" name="topright"/>
	<outline>
		<contour>
			<point x="166" y="588" type="line"/>
			<point x="274" y="588" type="line"/>
			<point x="427" y="1246" type="line"/>
			<point x="317" y="1246" type="line"/>
		</contour>
	</outline>
</glyph>
